<svg xmlns="http://www.w3.org/2000/svg" width="683" height="683" viewBox="0 0 683 683"><path d="M341.5,683a344.021,344.021,0,0,1-68.824-6.938,339.626,339.626,0,0,1-122.112-51.385A342.5,342.5,0,0,1,26.837,474.427a339.789,339.789,0,0,1-19.9-64.1,344.832,344.832,0,0,1,0-137.648A339.629,339.629,0,0,1,58.323,150.564,342.5,342.5,0,0,1,208.573,26.837a339.789,339.789,0,0,1,64.1-19.9,344.832,344.832,0,0,1,137.648,0A339.63,339.63,0,0,1,532.436,58.323a342.5,342.5,0,0,1,123.727,150.25,339.788,339.788,0,0,1,19.9,64.1,344.83,344.83,0,0,1,0,137.648,339.626,339.626,0,0,1-51.385,122.112,342.5,342.5,0,0,1-150.25,123.727,339.787,339.787,0,0,1-64.1,19.9A344.022,344.022,0,0,1,341.5,683Zm0-652.339C170.1,30.661,30.661,170.1,30.661,341.5S170.1,652.339,341.5,652.339,652.339,512.9,652.339,341.5,512.9,30.661,341.5,30.661Z" fill="#ffbe00"/></svg>