<svg xmlns="http://www.w3.org/2000/svg" width="1269.014" height="1325.386" viewBox="0 0 1269.014 1325.386"><g transform="translate(-574.341 -147.828)"><path d="M412.383,15.818c5.146.343,12.787-5.72,18.656-6.906,30.242-6.1,63.533-25.667,94.975-32.224,100.824-21.025,231.366-68.434,285.7,0,67.9,85.514,0,391.72,0,518.548,0,264.775-181.708,479.418-405.857,479.418S0,760.012,0,495.237,185.122,112.368,412.383,15.818Z" transform="matrix(0.839, 0.545, -0.545, 0.839, 1105.176, 197.274)"/><path d="M720.356-41.957h0c-41.627,0-90.916,11.831-138.582,23.27-18.218,4.372-35.426,8.5-52.289,12.018C515.229-3.7,499.545,2.636,484.378,8.76c-16.387,6.616-33.332,13.458-49.749,16.764a44.137,44.137,0,0,0-4.339,2c-3.877,1.934-8.528,4.254-13.833,5.036C176.567,134.828,17,252.946,17,495.237c0,254.978,174.44,462.418,388.857,462.418s388.857-207.44,388.857-462.418c0-39.075,6.3-94.9,12.977-154.012C821.968,214.765,841.523,41.573,798.4-12.74,782.789-32.4,757.261-41.959,720.356-41.957m0-17c37.794,0,70.3,9.119,91.358,35.646,67.9,85.514,0,391.72,0,518.548,0,264.775-181.708,479.418-405.857,479.418S0,760.012,0,495.237,185.122,112.367,412.383,15.818c5.146.343,12.787-5.72,18.656-6.906,30.242-6.1,63.533-25.667,94.975-32.224C587.755-36.186,660.65-58.955,720.355-58.957Z" transform="matrix(0.839, 0.545, -0.545, 0.839, 1105.176, 197.274)" fill="#fff"/></g></svg>